<svg height="100" viewBox="0 0 598 100" width="598" xmlns="http://www.w3.org/2000/svg"><g fill="none" fill-rule="evenodd"><path d="m148.999199 41.6815374h-8.999199v-7.6870281h8.999199v-6.8085107c0-5.2711313 1.554063-9.4257455 4.662235-12.463967 3.108173-3.0382216 7.408952-4.5573096 12.902466-4.5573096 2.313059 0 4.499589.3660453 6.559657 1.0981469s3.740624 1.7570284 5.04172 3.0748113l-3.903267 6.5888812c-1.807077-1.6106234-4.047819-2.4159231-6.722293-2.4159231-2.385342 0-4.282745.8236019-5.692265 2.4708305-1.40952 1.6472285-2.114269 3.8984071-2.114269 6.7536033v6.2594372h15.396219v7.6870281h-15.396219v47.2203157h-10.733984zm51.693266 48.3184626c-8.312555 0-14.854076-2.5440148-19.624759-7.6321208-4.770684-5.088106-7.155989-12.0612689-7.155989-20.919698s2.385305-15.831592 7.155989-20.919698c4.770683-5.088106 11.312204-7.6321208 19.624759-7.6321208 8.312554 0 14.872145 2.5440148 19.67897 7.6321208s7.210202 12.0612689 7.210202 20.919698-2.403377 15.831592-7.210202 20.919698-11.366416 7.6321208-19.67897 7.6321208zm0-8.2361016c4.987532 0 8.926901-1.8119242 11.818224-5.435827 2.891324-3.6239028 4.336964-8.5838166 4.336964-14.8798902s-1.44564-11.2559874-4.336964-14.8798902c-2.891323-3.6239028-6.830692-5.435827-11.818224-5.435827-5.059816 0-8.999185 1.8119242-11.818225 5.435827s-4.228539 8.5838166-4.228539 14.8798902 1.409499 11.2559874 4.228539 14.8798902 6.758409 5.435827 11.818225 5.435827zm35.321229-34.3719972c0-6.2228635-.108423-10.6886161-.325272-13.3973919h10.083439c.289133 2.9284063.433697 6.1496049.433697 9.6636925v1.0981469h.325272c1.445662-3.7337181 3.740615-6.6437782 6.884929-8.7302677s6.848767-3.1297186 11.113469-3.1297186c1.156529 0 2.204618.1098136 3.144298.3294441v8.785175c-.505982-.1464203-1.626353-.2196294-3.361147-.2196294-3.180455 0-6.125947.9334155-8.836562 2.8002745-2.710616 1.8668591-4.842935 4.3925716-6.397021 7.5772135-1.554086 3.1846418-2.331118 6.6803745-2.331118 10.4873027v26.2457103h-10.733984zm36.947591.6588881c0-5.563972-.180705-10.2493518-.54212-14.05628h9.541319c.289132 2.7087758.433696 5.9299744.433696 9.6636925h.325272c1.373379-3.2944571 3.59605-5.911681 6.668081-7.8517502s6.559638-2.9100892 10.462924-2.9100892c3.831003 0 7.119834.9334155 9.866591 2.8002745 2.746758 1.8668591 4.589949 4.4840829 5.529629 7.8517502 1.517944-3.2944571 3.812898-5.8933787 6.884929-7.7968428s6.523496-2.8551819 10.3545-2.8551819c5.999495 0 10.679755 1.9583423 14.040918 5.8750858 3.361163 3.9167434 5.04172 9.3159116 5.04172 16.1976664v33.9327385h-10.733984v-32.9444063c0-4.5390298-.957737-8.0530646-2.873238-10.54221-1.915502-2.4891454-4.644147-3.7336994-8.186018-3.7336994-3.614155 0-6.559646 1.3360653-8.836563 4.0082361s-3.415359 6.1312988-3.415359 10.377488v32.8345916h-10.62556v-32.5051475c0-9.8101612-3.541818-14.7151682-10.62556-14.7151682-2.313058 0-4.427307.6588815-6.342808 1.9766644-1.915502 1.3177828-3.451494 3.1114048-4.608024 5.3809197-1.156529 2.2695149-1.734785 4.7220184-1.734785 7.3575841v32.5051475h-10.62556zm105.037914 41.9492107c-4.264702 0-8.095648-.8785087-11.492953-2.6355525s-5.782611-4.0997337-7.155989-7.02814l6.830717-4.7220316c1.228812 1.9034641 2.891298 3.4042498 4.987508 4.5024022 2.096209 1.0981524 4.373092 1.6472203 6.830717 1.6472203 2.81904 0 5.150134-.8052996 6.993353-2.4159231s2.764814-3.6604772 2.764814-6.1496225c0-1.9766743-.72282-3.6055759-2.168482-4.8867536-1.445661-1.2811778-4.120095-2.6538477-8.023382-4.1180508-6.288628-2.4159352-10.7159-4.886741-13.28195-7.4124914-2.566049-2.5257505-3.849054-5.6554378-3.849054-9.3891558 0-4.3926095 1.716697-7.9066444 5.150143-10.5422101 3.433447-2.6355656 8.005283-3.9533287 13.715647-3.9533287 3.686437 0 7.04755.7686951 10.083439 2.3061084 3.03589 1.5374133 5.421196 3.6970806 7.15599 6.4790666l-6.397021 4.8318463c-1.228813-1.7570438-2.764805-3.0931092-4.608024-4.0082361-1.843218-.915127-3.885185-1.3726836-6.12596-1.3726836-2.457625 0-4.46345.5490679-6.017537 1.6472203-1.554086 1.0981524-2.331117 2.525729-2.331117 4.2827728 0 1.830254.795102 3.3493419 2.385329 4.5573095 1.590228 1.2079676 4.698354 2.7270556 9.324471 4.5573096 5.782647 2.2695149 9.848509 4.6305071 12.197709 7.0830473 2.349201 2.4525403 3.523783 5.6188322 3.523783 9.4989705 0 5.1979212-1.879332 9.3708376-5.638052 12.5188744s-8.710037 4.7220316-14.854099 4.7220316zm48.874239 0c-5.059815 0-9.017255-1.5556925-11.872436-4.6671242-2.855182-3.1114317-4.282752-7.412464-4.282752-12.9032258v-30.0892245h-9.758167v-8.3459162h9.758167v-13.9945093h10.733984v13.9945093h15.504644v8.3459162h-15.504644v28.7714482c0 3.5872977.70475 6.2228239 2.11427 7.9066575 1.40952 1.6838337 3.55991 2.5257378 6.451233 2.5257378s5.457334-.4392543 7.69811-1.3177762l.650544 7.7968428c-2.674474 1.3177829-6.50542 1.9766644-11.492953 1.9766644zm35.538078 0c-3.541871 0-6.704208-.7320906-9.487107-2.1962938-2.782899-1.4642031-4.951359-3.4957545-6.505445-6.0947151s-2.331118-5.5456253-2.331118-8.8400824c0-5.563972 2.096178-9.8283997 6.288597-12.7934111s10.155684-4.4474949 17.889974-4.4474949h10.191863v-2.7453671c0-3.6605079-.975807-6.4790567-2.92745-8.455731s-4.806782-2.9649966-8.565502-2.9649966c-3.252739 0-6.288583.6405793-9.107623 1.9217571-2.81904 1.2811777-5.132064 3.1297065-6.939141 5.5456417l-5.095932-6.4790666c2.602191-3.0748266 5.764528-5.4358188 9.487107-7.0830473 3.722579-1.6472286 7.7523-2.4708305 12.089285-2.4708305 6.939176 0 12.324185 1.7021106 16.155188 5.106383 3.831003 3.4042723 5.746476 8.217768 5.746476 14.4406314v25.4770076c0 3.2944571.433692 6.95491 1.301089 10.9814687h-9.432895c-.722831-1.7570438-1.228805-4.2095473-1.517937-7.3575841h-.216848c-4.120136 5.6371822-9.794273 8.455731-17.022581 8.455731zm2.060058-8.455731c3.903286 0 7.210188-1.0798336 9.920803-3.2395332 2.710616-2.1596997 4.065903-4.7769236 4.065903-7.8517502v-7.2477694h-10.62556c-4.264702 0-7.535462.8236019-9.812379 2.4708305-2.276917 1.6472285-3.415359 4.0448252-3.415359 7.192862 0 2.7087759.885455 4.8318386 2.65639 6.3692519 1.770936 1.5374133 4.174312 2.3061084 7.210202 2.3061084zm59.174527 8.455731c-8.167988 0-14.528804-2.5257126-19.082638-7.5772135-4.553834-5.0515008-6.830717-12.042966-6.830717-20.9746053 0-9.0048494 2.276883-16.0146169 6.830717-21.0295127s10.91465-7.5223061 19.082638-7.5223061c4.698401 0 8.836545.9151132 12.414557 2.7453672 3.578013 1.8302539 6.37894 4.4657801 8.402867 7.9066575l-6.397021 5.8201784c-1.517945-2.4891453-3.5057-4.4291854-5.963324-5.8201784-2.457625-1.390993-5.132059-2.0864791-8.023382-2.0864791-4.91525 0-8.746196 1.7570175-11.492953 5.271105-2.746757 3.5140876-4.120115 8.4190946-4.120115 14.7151682 0 6.2228634 1.373358 11.1095681 4.120115 14.6602608s6.577703 5.3260124 11.492953 5.3260124c2.891323 0 5.565757-.6954861 8.023382-2.0864791 2.457624-1.390993 4.445379-3.3310331 5.963324-5.8201785l6.397021 5.8201785c-2.023927 3.4408774-4.824854 6.0764036-8.402867 7.9066575-3.578012 1.830254-7.716156 2.7453672-12.414557 2.7453672zm62.210402-1.0981469-17.239429-26.9045985-7.481262 7.4673988v19.4371997h-10.842408v-78.9018531h10.842408v46.3967056l22.118513-22.4021963h13.119314l-20.492152 20.6451613 22.118513 34.2621825z" fill="#000"/><g fill-rule="nonzero"><path d="m86.9172258 0c1.6552779 0 2.9971457 1.34186785 2.9971457 2.99714572v94.00570858c0 1.6552779-1.3418678 2.9971457-2.9971457 2.9971457h-83.92008008c-1.65527787 0-2.99714572-1.3418678-2.99714572-2.9971457v-94.00570858c0-1.65527787 1.34186785-2.99714572 2.99714572-2.99714572zm14.9857282 10c1.655278 0 2.997146 1.3418678 2.997146 2.9971457v74.0057086c0 1.6552779-1.341868 2.9971457-2.997146 2.9971457h-6.9933396v-80zm14.985729 10c1.655278 0 2.997146 1.3418678 2.997146 2.9971457v54.0057086c0 1.6552779-1.341868 2.9971457-2.997146 2.9971457h-6.99334v-60z" fill="#000"/><path d="m35.7861071 72.3433765c.1169409.1676531.1796415.3671424.1796415.5715506v10.1643935c0 .5517593-.4472893.9990485-.9990486.9990485h-14.0213731c-.5325988 0-.9643554-.4317566-.9643554-.9643554v-.4431356c0-.3265922.1596311-.6325654.4274979-.8194071l13.9866801-9.7559509c.452546-.3156587 1.075299-.2046896 1.3909576.2478564zm23.0501124-23.3433765c.5517593 0 .9990486.4472893.9990486.9990486 0 .3288547-.1618368.6366473-.432759.8230517l-37.8561995 26.0464466c-.4545589.3127531-1.0765882.1977968-1.3893413-.2567622-.1146271-.1666002-.1759968-.3640644-.1759968-.5662896v-15.4899583c0-.306579.1407631-.5961836.3818373-.7855879l13.4363227-10.5564882c.1760141-.1382887.3933703-.2134607.6172112-.2134607zm8.2512276-33c.5517593 0 .9990486.4472893.9990486.9990486 0 .303332-.1378112.590236-.3745857.7798359l-46.1074271 36.9210694c-.4306915.3448814-1.0594175.2753185-1.4042988-.155373-.1418972-.1772028-.2192126-.3974484-.2192126-.6244629v-36.9210694c0-.5517593.4472892-.9990486.9990485-.9990486z" fill="#fff"/></g></g></svg>