<svg height="113" viewBox="0 0 630 113" width="630" xmlns="http://www.w3.org/2000/svg"><g fill="none" fill-rule="evenodd"><path d="m161.829697 94.5363636c-6.711549 0-11.984829-2.4654299-15.82-7.3963636s-5.752727-11.6766239-5.752727-20.2372727c0-5.2048745.890294-9.7419504 2.670909-13.6113637s4.314529-6.8655954 7.601818-8.9886363 7.122402-3.1845455 11.505455-3.1845455c6.163667 0 11.094526 2.4654299 14.792727 7.3963637h.205454v-31.229091h10.17v63.0745455c0 6.5745783.102727 10.9575648.308182 13.1490909h-9.450909c-.13697-1.5066742-.205454-4.0748303-.205454-7.7045454h-.205455c-1.575159 2.6024372-3.800895 4.7083252-6.677273 6.3177272s-5.923923 2.4140909-9.142727 2.4140909zm1.643636-8.0127272c4.109112 0 7.396352-1.2155939 9.861819-3.6468182 2.465466-2.4312243 3.698181-5.7355852 3.698181-9.9131818v-9.7590909c0-4.2460819-1.249836-7.7045321-3.749545-10.3754546-2.49971-2.6709224-5.769828-4.0063636-9.810455-4.0063636-4.109111 0-7.310746 1.5922568-9.605 4.7768182-2.294254 3.1845613-3.441363 7.6873951-3.441363 13.5086363 0 6.095182 1.147109 10.8548314 3.441363 14.2790909 2.294254 3.4242596 5.495889 5.1363637 9.605 5.1363637zm57.972425 8.0127272c-7.875797 0-14.073614-2.3798247-18.593637-7.1395454-4.520022-4.7597208-6.78-11.2828374-6.78-19.5695455s2.259978-14.8098247 6.78-19.5695454c4.520023-4.7597208 10.71784-7.1395455 18.593637-7.1395455s14.090734 2.3798247 18.645 7.1395455c4.554265 4.7597207 6.831363 11.2828373 6.831363 19.5695454s-2.277098 14.8098247-6.831363 19.5695455c-4.554266 4.7597207-10.769203 7.1395454-18.645 7.1395454zm0-7.7045454c4.725478 0 8.457865-1.6949831 11.197272-5.085 2.739408-3.390017 4.109091-8.0298191 4.109091-13.9195455s-1.369683-10.5295285-4.109091-13.9195454c-2.739407-3.390017-6.471794-5.085-11.197272-5.085-4.793964 0-8.526351 1.694983-11.197273 5.085-2.670923 3.3900169-4.006364 8.029819-4.006364 13.9195454s1.335441 10.5295285 4.006364 13.9195455c2.670922 3.3900169 6.403309 5.085 11.197273 5.085zm56.123333 7.7045454c-7.738827 0-13.765433-2.3627036-18.08-7.0881818s-6.471818-11.2657158-6.471818-19.6209091c0-8.4236785 2.157251-14.9810371 6.471818-19.6722727s10.341173-7.0368182 18.08-7.0368182c4.451537 0 8.372256.8560521 11.762273 2.5681818 3.390017 1.7121298 6.043778 4.1775597 7.961363 7.3963637l-6.060909 5.4445454c-1.438189-2.3284965-3.321503-4.1433268-5.65-5.4445454-2.328496-1.3012187-4.86241-1.9518182-7.601818-1.9518182-4.656993 0-8.286654 1.6436199-10.889091 4.9309091-2.602437 3.2872891-3.903636 7.8757281-3.903636 13.7654545 0 5.8212413 1.301199 10.3925592 3.903636 13.7140909 2.602437 3.3215318 6.232098 4.9822728 10.889091 4.9822728 2.739408 0 5.273322-.6505996 7.601818-1.9518182 2.328497-1.3012186 4.211811-3.116049 5.65-5.4445455l6.060909 5.4445455c-1.917585 3.218804-4.571346 5.6842338-7.961363 7.3963636s-7.310736 2.5681818-11.762273 2.5681818zm44.515151 0c-5.889726 0-10.358318-1.9346776-13.405909-5.8040909s-4.571363-9.5707199-4.571363-17.1040909v-29.4827273h10.17v29.5854546c0 4.9309337.856052 8.5948365 2.568182 10.9918182 1.712129 2.3969817 4.314528 3.5954545 7.807272 3.5954545 4.109112 0 7.516199-1.5408937 10.221364-4.6227273 2.705165-3.0818335 4.057727-6.9854309 4.057727-11.710909v-27.839091h10.17v39.7554546c0 3.6982003.308179 7.5675555.924546 11.6081818h-9.553637c-.547881-2.9448632-.85606-5.9924085-.924545-9.1427273h-.308182c-1.369704 3.1503188-3.61256 5.6328697-6.728636 7.4477273-3.116077 1.8148576-6.591648 2.7222727-10.426819 2.7222727zm38.351516-39.2418181c0-5.2048746-.171211-9.587861-.513637-13.149091h9.04c.273941 2.5339521.410909 5.5472553.410909 9.04h.308182c1.301219-3.0818335 3.407107-5.5301424 6.317727-7.345 2.910621-1.8148575 6.214982-2.7222727 9.913182-2.7222727 3.629715 0 6.745745.8731731 9.348182 2.6195455 2.602437 1.7463723 4.348783 4.1946812 5.239091 7.345 1.438189-3.0818336 3.612561-5.5130214 6.523182-7.2936364 2.91062-1.780615 6.180739-2.6709091 9.810454-2.6709091 5.684271 0 10.118621 1.8319514 13.303182 5.4959091s4.776818 8.7146648 4.776818 15.1522727v31.7427273h-10.17v-30.8181818c0-4.2460818-.907415-7.5333217-2.722272-9.8618182-1.814858-2.3284965-4.400135-3.4927273-7.75591-3.4927273-3.424259 0-6.214989 1.249836-8.372272 3.7495455-2.157284 2.4997095-3.235909 5.7355862-3.235909 9.7077273v30.7154545h-10.067273v-30.4072727c0-9.1770156-3.355724-13.7654546-10.067273-13.7654546-2.191526 0-4.194688.6163575-6.009545 1.8490909-1.814858 1.2327335-3.270146 2.9105955-4.365909 5.0336364s-1.643637 4.4172604-1.643637 6.8827273v30.4072727h-10.067272zm130.395151 16.4363636h-36.570909c.547882 4.656993 2.037412 8.1839274 4.468636 10.5809091 2.431225 2.3969817 5.769828 3.5954545 10.015909 3.5954545 6.026697 0 10.889073-2.3627036 14.587273-7.0881818l5.65 5.4445455c-1.98607 3.2188039-4.828163 5.7355969-8.526363 7.5504545-3.698201 1.8148576-7.773009 2.7222727-12.224546 2.7222727-7.670341 0-13.645585-2.3455826-17.925909-7.0368181-4.280324-4.6912356-6.420455-11.2143522-6.420455-19.5695455s2.157252-14.912552 6.471819-19.6722727c4.314567-4.7597208 10.238447-7.1395455 17.771818-7.1395455 7.12246 0 12.686798 2.3455826 16.693182 7.0368182 4.006383 4.6912356 6.009545 11.2485942 6.009545 19.6722727zm-9.656364-8.0127273c0-4.4515374-1.198472-7.9442297-3.595454-10.4781818s-5.684222-3.8009091-9.861818-3.8009091c-3.903656 0-7.019686 1.3011991-9.348182 3.9036364-2.328497 2.6024372-3.732422 6.3005821-4.211818 11.0945454h27.017272zm18.21697-8.4236363c0-6.3691228-.136968-10.7521093-.410909-13.149091h9.450909c.342426 2.5339521.513637 5.5472553.513637 9.04h.308181c1.369704-3.0818335 3.612561-5.5301424 6.728637-7.345 3.116076-1.8148575 6.591647-2.7222727 10.426818-2.7222727 12.053393 0 18.08 7.8071947 18.08 23.4218182v28.9690909h-10.17v-29.0718182c0-5.1363893-.856052-8.9372604-2.568182-11.4027272-1.71213-2.4654669-4.34877-3.6981819-7.91-3.6981819-4.177597 0-7.601805 1.5066516-10.272727 4.52-2.670923 3.0133484-4.006364 6.8484616-4.006364 11.5054546v28.1472727h-10.17zm76.155152 39.2418181c-4.793964 0-8.543472-1.4552884-11.248637-4.3659091-2.705165-2.9106206-4.057727-6.9340652-4.057727-12.0704545v-28.1472727h-9.245455v-7.8072728h9.245455v-13.56l9.759091-2.8763636h.410909v16.4363636h14.69v7.8072728h-14.69v26.9145454c0 3.3557744.667721 5.8212043 2.003182 7.3963637s3.372865 2.3627272 6.112273 2.3627272c2.739407 0 5.170595-.4109049 7.293636-1.2327272l.616364 7.2936363c-2.533952 1.2327335-6.163613 1.8490909-10.889091 1.8490909zm34.75606 0c-4.040626 0-7.670287-.8218099-10.889091-2.4654545s-5.478781-3.8351378-6.78-6.5745455l6.471819-4.4172727c1.164248 1.780615 2.739384 3.1845403 4.725454 4.2118182 1.986071 1.0272779 4.143322 1.5409091 6.471818 1.5409091 2.670923 0 4.879537-.7533258 6.625909-2.26 1.746373-1.5066742 2.619546-3.4242308 2.619546-5.7527273 0-1.8491001-.684842-3.3728728-2.054546-4.5713636-1.369703-1.1984909-3.903618-2.4825689-7.601818-3.8522728-5.958211-2.2600113-10.152866-4.5713518-12.584091-6.9340909-2.431224-2.3627391-3.646818-5.290437-3.646818-8.7831818 0-4.1091114 1.626499-7.3963513 4.879546-9.8618182 3.253046-2.4654668 7.584669-3.6981818 12.995-3.6981818 3.492744 0 6.677258.7190837 9.553636 2.1572727 2.876378 1.4381891 5.136355 3.4584719 6.78 6.0609091l-6.060909 4.52c-1.164248-1.6436445-2.619537-2.8934805-4.365909-3.7495454-1.746373-.8560649-3.68105-1.2840909-5.804091-1.2840909-2.328497 0-4.228932.5136312-5.701364 1.5409091-1.472431 1.0272778-2.208636 2.362719-2.208636 4.0063636 0 1.7121298.753326 3.1331762 2.26 4.2631818 1.506674 1.1300057 4.451493 2.5510521 8.834545 4.2631818 5.478816 2.123041 9.33105 4.3316552 11.556818 6.6259091 2.225769 2.2942539 3.338637 5.256194 3.338637 8.8859091 0 4.8624486-1.780588 8.7660459-5.341818 11.7109091s-8.252396 4.4172727-14.073637 4.4172727z" fill="#15232b" fill-rule="nonzero"/><rect fill="#15232b" fill-rule="nonzero" height="113" rx="8.629091" width="113"/><path d="m53.1183072 22.2575758 33.7898817 33.7944101v34.6904383h-60.5415222v-68.4848484zm33.8574504 0-.0675687 25.1127279-25.168068-25.1127279z" fill="#fff"/></g></svg>