<svg height="207" viewBox="0 0 250 207" width="250" xmlns="http://www.w3.org/2000/svg"><g fill="none" transform="translate(.5)"><path d="m180.353244 0c3.434701 0 6.219077 2.78437578 6.219077 6.21907737v194.56184563c0 3.434701-2.784376 6.219077-6.219077 6.219077h-174.13416663c-3.43470159 0-6.21907737-2.784376-6.21907737-6.219077v-194.56184563c0-3.43470159 2.78437578-6.21907737 6.21907737-6.21907737zm31.095386 20.7c3.434702 0 6.219078 2.7843758 6.219078 6.2190774v153.1618456c0 3.434701-2.784376 6.219077-6.219078 6.219077h-14.51118v-165.6zm31.095387 20.7c3.434702 0 6.219078 2.7843758 6.219078 6.2190774v111.7618456c0 3.434701-2.784376 6.219077-6.219078 6.219077h-14.51118v-124.2z" fill="#21b573"/><path d="m74.2575132 149.753955c.2418015.347498.3714152.760696.3714152 1.184043v21.0312c0 1.144901-.9281253 2.073026-2.0730258 2.073026h-29.099171c-1.1024796 0-1.9962158-.893736-1.9962158-1.996216v-.913192c0-.678508.3320405-1.314069.888983-1.70161l29.022361-20.194819c.9397736-.653929 2.2317246-.422206 2.8856534.517568zm47.8143668-48.323955c1.1449 0 2.073026.928125 2.073026 2.073026 0 .683199-.33662 1.322531-.899899 1.709154l-78.5383384 53.907033c-.94394.6479-2.2343814.407912-2.8822815-.536028-.2370113-.345307-.3638713-.754306-.3638713-1.173127v-32.056167c0-.637004.2928632-1.238641.7942233-1.631594l27.87901-21.850866c.3649102-.286007.8151651-.441431 1.2788025-.441431zm17.123436-68.31c1.144901 0 2.073026.9281253 2.073026 2.0730258 0 .6302693-.286732 1.2263079-.77917 1.6196833l-95.661775 76.4177169c-.8945265.714577-2.1989622.568699-2.9135388-.325827-.2934815-.367389-.4533424-.823637-.4533424-1.293856v-76.4177172c0-1.1449005.9281252-2.0730258 2.0730258-2.0730258z" fill="#fff"/></g></svg>